REM DIRINDEX 1\2\4,1\2\5,1\2\6,1\3\7,1\3\8
REM DIRNAME cjc128,folder01,folder02,folder03,folder04,folder05,folder06,folder07
TITLE ""
FILE "019_Lesson 16_Output_Stage.mp3" MP3
  TRACK 01 AUDIO
    TITLE "0:"
    INDEX 01 00:00:00
  TRACK 02 AUDIO
    TITLE "6:cjc128_1073"
    INDEX 01 00:00:11
  TRACK 03 AUDIO
    TITLE "0:"
    INDEX 01 00:03:19
  TRACK 04 AUDIO
    TITLE "6:cjc128_1074"
    INDEX 01 00:03:33
  TRACK 05 AUDIO
    TITLE "0:"
    INDEX 01 00:05:24
  TRACK 06 AUDIO
    TITLE "4:cjc128_1075"
    INDEX 01 00:05:73
  TRACK 07 AUDIO
    TITLE "0:"
    INDEX 01 00:08:32
  TRACK 08 AUDIO
    TITLE "5:cjc128_1076"
    INDEX 01 00:11:29
  TRACK 09 AUDIO
    TITLE "0:"
    INDEX 01 00:13:57
  TRACK 10 AUDIO
    TITLE "6:cjc128_1077"
    INDEX 01 00:14:41
  TRACK 11 AUDIO
    TITLE "0:"
    INDEX 01 00:16:32
  TRACK 12 AUDIO
    TITLE "4:cjc128_1078"
    INDEX 01 00:17:18
  TRACK 13 AUDIO
    TITLE "0:"
    INDEX 01 00:19:18
  TRACK 14 AUDIO
    TITLE "5:cjc128_1079"
    INDEX 01 00:22:17
  TRACK 15 AUDIO
    TITLE "0:"
    INDEX 01 00:24:43
  TRACK 16 AUDIO
    TITLE "6:cjc128_1080"
    INDEX 01 00:25:23
  TRACK 17 AUDIO
    TITLE "0:"
    INDEX 01 00:27:12
  TRACK 18 AUDIO
    TITLE "4:cjc128_1081"
    INDEX 01 00:27:69
  TRACK 19 AUDIO
    TITLE "0:"
    INDEX 01 00:30:18
  TRACK 20 AUDIO
    TITLE "5:cjc128_1082"
    INDEX 01 00:32:62
  TRACK 21 AUDIO
    TITLE "0:"
    INDEX 01 00:34:61
  TRACK 22 AUDIO
    TITLE "6:cjc128_1083"
    INDEX 01 00:35:37
  TRACK 23 AUDIO
    TITLE "0:"
    INDEX 01 00:37:36
  TRACK 24 AUDIO
    TITLE "4:cjc128_1084"
    INDEX 01 00:38:16
  TRACK 25 AUDIO
    TITLE "0:"
    INDEX 01 00:40:40
  TRACK 26 AUDIO
    TITLE "5:cjc128_1085"
    INDEX 01 00:43:07
  TRACK 27 AUDIO
    TITLE "0:"
    INDEX 01 00:45:18
  TRACK 28 AUDIO
    TITLE "6:cjc128_1086"
    INDEX 01 00:45:65
  TRACK 29 AUDIO
    TITLE "0:"
    INDEX 01 00:47:62
  TRACK 30 AUDIO
    TITLE "4:cjc128_1087"
    INDEX 01 00:48:49
  TRACK 31 AUDIO
    TITLE "0:"
    INDEX 01 00:50:66
  TRACK 32 AUDIO
    TITLE "5:cjc128_1088"
    INDEX 01 00:53:00
  TRACK 33 AUDIO
    TITLE "0:"
    INDEX 01 00:54:34
  TRACK 34 AUDIO
    TITLE "6:cjc128_1089"
    INDEX 01 00:55:14
  TRACK 35 AUDIO
    TITLE "0:"
    INDEX 01 00:57:13
  TRACK 36 AUDIO
    TITLE "4:cjc128_1090"
    INDEX 01 00:57:66
  TRACK 37 AUDIO
    TITLE "0:"
    INDEX 01 00:59:12
  TRACK 38 AUDIO
    TITLE "5:cjc128_1091"
    INDEX 01 01:01:11
  TRACK 39 AUDIO
    TITLE "0:"
    INDEX 01 01:02:50
  TRACK 40 AUDIO
    TITLE "6:cjc128_1092"
    INDEX 01 01:03:24
  TRACK 41 AUDIO
    TITLE "0:"
    INDEX 01 01:05:17
  TRACK 42 AUDIO
    TITLE "4:cjc128_1093"
    INDEX 01 01:05:73
  TRACK 43 AUDIO
    TITLE "0:"
    INDEX 01 01:08:17
  TRACK 44 AUDIO
    TITLE "5:cjc128_1094"
    INDEX 01 01:11:05
  TRACK 45 AUDIO
    TITLE "0:"
    INDEX 01 01:13:12
  TRACK 46 AUDIO
    TITLE "6:cjc128_1095"
    INDEX 01 01:13:69
  TRACK 47 AUDIO
    TITLE "0:"
    INDEX 01 01:15:66
  TRACK 48 AUDIO
    TITLE "4:cjc128_1096"
    INDEX 01 01:16:44
  TRACK 49 AUDIO
    TITLE "0:"
    INDEX 01 01:18:45
  TRACK 50 AUDIO
    TITLE "5:cjc128_1097"
    INDEX 01 01:20:42
  TRACK 51 AUDIO
    TITLE "0:"
    INDEX 01 01:22:09
  TRACK 52 AUDIO
    TITLE "6:cjc128_1098"
    INDEX 01 01:22:60
  TRACK 53 AUDIO
    TITLE "0:"
    INDEX 01 01:24:37
  TRACK 54 AUDIO
    TITLE "4:cjc128_1099"
    INDEX 01 01:25:17
  TRACK 55 AUDIO
    TITLE "0:"
    INDEX 01 01:27:26
  TRACK 56 AUDIO
    TITLE "5:cjc128_1100"
    INDEX 01 01:29:52
  TRACK 57 AUDIO
    TITLE "0:"
    INDEX 01 01:31:30
  TRACK 58 AUDIO
    TITLE "6:cjc128_1101"
    INDEX 01 01:32:10
  TRACK 59 AUDIO
    TITLE "0:"
    INDEX 01 01:34:05
  TRACK 60 AUDIO
    TITLE "4:cjc128_1102"
    INDEX 01 01:34:55
  TRACK 61 AUDIO
    TITLE "0:"
    INDEX 01 01:36:72
  TRACK 62 AUDIO
    TITLE "5:cjc128_1103"
    INDEX 01 01:39:45
  TRACK 63 AUDIO
    TITLE "0:"
    INDEX 01 01:41:67
  TRACK 64 AUDIO
    TITLE "6:cjc128_1104"
    INDEX 01 01:42:37
  TRACK 65 AUDIO
    TITLE "0:"
    INDEX 01 01:44:36
  TRACK 66 AUDIO
    TITLE "4:cjc128_1105"
    INDEX 01 01:45:18
  TRACK 67 AUDIO
    TITLE "0:"
    INDEX 01 01:48:16
  TRACK 68 AUDIO
    TITLE "5:cjc128_1106"
    INDEX 01 01:51:34
  TRACK 69 AUDIO
    TITLE "0:"
    INDEX 01 01:54:17
  TRACK 70 AUDIO
    TITLE "6:cjc128_1107"
    INDEX 01 01:54:68
  TRACK 71 AUDIO
    TITLE "0:"
    INDEX 01 01:56:69
  TRACK 72 AUDIO
    TITLE "4:cjc128_1108"
    INDEX 01 01:57:53
  TRACK 73 AUDIO
    TITLE "0:"
    INDEX 01 02:00:45
  TRACK 74 AUDIO
    TITLE "5:cjc128_1109"
    INDEX 01 02:03:69
  TRACK 75 AUDIO
    TITLE "0:"
    INDEX 01 02:06:52
  TRACK 76 AUDIO
    TITLE "6:cjc128_1110"
    INDEX 01 02:07:24
  TRACK 77 AUDIO
    TITLE "0:"
    INDEX 01 02:09:22
  TRACK 78 AUDIO
    TITLE "4:cjc128_1111"
    INDEX 01 02:10:06
  TRACK 79 AUDIO
    TITLE "0:"
    INDEX 01 02:12:62
  TRACK 80 AUDIO
    TITLE "5:cjc128_1112"
    INDEX 01 02:15:45
  TRACK 81 AUDIO
    TITLE "0:"
    INDEX 01 02:17:63
  TRACK 82 AUDIO
    TITLE "6:cjc128_1113"
    INDEX 01 02:18:37
  TRACK 83 AUDIO
    TITLE "0:"
    INDEX 01 02:20:44
  TRACK 84 AUDIO
    TITLE "4:cjc128_1114"
    INDEX 01 02:21:16
  TRACK 85 AUDIO
    TITLE "0:"
    INDEX 01 02:23:54
  TRACK 86 AUDIO
    TITLE "5:cjc128_1115"
    INDEX 01 02:26:11
  TRACK 87 AUDIO
    TITLE "0:"
    INDEX 01 02:27:73
  TRACK 88 AUDIO
    TITLE "6:cjc128_1116"
    INDEX 01 02:28:53
  TRACK 89 AUDIO
    TITLE "0:"
    INDEX 01 02:30:54
  TRACK 90 AUDIO
    TITLE "4:cjc128_1117"
    INDEX 01 02:31:30
  TRACK 91 AUDIO
    TITLE "0:"
    INDEX 01 02:33:66
  TRACK 92 AUDIO
    TITLE "5:cjc128_1118"
    INDEX 01 02:37:19
  TRACK 93 AUDIO
    TITLE "0:"
    INDEX 01 02:39:73
  TRACK 94 AUDIO
    TITLE "6:cjc128_1119"
    INDEX 01 02:40:50
  TRACK 95 AUDIO
    TITLE "0:"
    INDEX 01 02:42:49
  TRACK 96 AUDIO
    TITLE "4:cjc128_1120"
    INDEX 01 02:43:27
  TRACK 97 AUDIO
    TITLE "0:"
    INDEX 01 02:45:12
  TRACK 98 AUDIO
    TITLE "5:cjc128_1121"
    INDEX 01 02:47:45
  TRACK 99 AUDIO
    TITLE "0:"
    INDEX 01 02:49:63
  TRACK 100 AUDIO
    TITLE "6:cjc128_1122"
    INDEX 01 02:50:39
  TRACK 101 AUDIO
    TITLE "0:"
    INDEX 01 02:52:32
  TRACK 102 AUDIO
    TITLE "4:cjc128_1123"
    INDEX 01 02:53:10
  TRACK 103 AUDIO
    TITLE "0:"
    INDEX 01 02:55:50
  TRACK 104 AUDIO
    TITLE "5:cjc128_1124"
    INDEX 01 02:58:25
  TRACK 105 AUDIO
    TITLE "0:"
    INDEX 01 03:00:36
  TRACK 106 AUDIO
    TITLE "6:cjc128_1125"
    INDEX 01 03:01:08
  TRACK 107 AUDIO
    TITLE "0:"
    INDEX 01 03:03:08
  TRACK 108 AUDIO
    TITLE "4:cjc128_1126"
    INDEX 01 03:03:61
  TRACK 109 AUDIO
    TITLE "0:"
    INDEX 01 03:06:15
  TRACK 110 AUDIO
    TITLE "5:cjc128_1127"
    INDEX 01 03:09:09
  TRACK 111 AUDIO
    TITLE "0:"
    INDEX 01 03:11:26
  TRACK 112 AUDIO
    TITLE "6:cjc128_1128"
    INDEX 01 03:12:07
  TRACK 113 AUDIO
    TITLE "0:"
    INDEX 01 03:13:66
  TRACK 114 AUDIO
    TITLE "4:cjc128_1129"
    INDEX 01 03:14:45
  TRACK 115 AUDIO
    TITLE "0:"
    INDEX 01 03:16:74
  TRACK 116 AUDIO
    TITLE "5:cjc128_1130"
    INDEX 01 03:20:60
  TRACK 117 AUDIO
    TITLE "0:"
    INDEX 01 03:23:68
  TRACK 118 AUDIO
    TITLE "6:cjc128_1131"
    INDEX 01 03:24:50
  TRACK 119 AUDIO
    TITLE "0:"
    INDEX 01 03:26:54
  TRACK 120 AUDIO
    TITLE "4:cjc128_1132"
    INDEX 01 03:27:32
  TRACK 121 AUDIO
    TITLE "0:"
    INDEX 01 03:30:17
  TRACK 122 AUDIO
    TITLE "5:cjc128_1133"
    INDEX 01 03:33:06
  TRACK 123 AUDIO
    TITLE "0:"
    INDEX 01 03:35:30
  TRACK 124 AUDIO
    TITLE "6:cjc128_1134"
    INDEX 01 03:36:10
  TRACK 125 AUDIO
    TITLE "0:"
    INDEX 01 03:38:05
  TRACK 126 AUDIO
    TITLE "4:cjc128_1135"
    INDEX 01 03:38:66
  TRACK 127 AUDIO
    TITLE "0:"
    INDEX 01 03:42:26
  TRACK 128 AUDIO
    TITLE "5:cjc128_1136"
    INDEX 01 03:45:54
  TRACK 129 AUDIO
    TITLE "0:"
    INDEX 01 03:48:44
  TRACK 130 AUDIO
    TITLE "6:cjc128_1137"
    INDEX 01 03:49:22
  TRACK 131 AUDIO
    TITLE "0:"
    INDEX 01 03:51:23
  TRACK 132 AUDIO
    TITLE "4:cjc128_1138"
    INDEX 01 03:52:09
  TRACK 133 AUDIO
    TITLE "0:"
    INDEX 01 03:54:57
  TRACK 134 AUDIO
    TITLE "5:cjc128_1139"
    INDEX 01 03:57:43
  TRACK 135 AUDIO
    TITLE "0:"
    INDEX 01 03:59:72
  TRACK 136 AUDIO
    TITLE "6:cjc128_1140"
    INDEX 01 04:00:44
  TRACK 137 AUDIO
    TITLE "0:"
    INDEX 01 04:02:44
  TRACK 138 AUDIO
    TITLE "4:cjc128_1141"
    INDEX 01 04:03:30
  TRACK 139 AUDIO
    TITLE "0:"
    INDEX 01 04:05:35
  TRACK 140 AUDIO
    TITLE "5:cjc128_1142"
    INDEX 01 04:08:33
  TRACK 141 AUDIO
    TITLE "0:"
    INDEX 01 04:11:00
  TRACK 142 AUDIO
    TITLE "6:cjc128_1143"
    INDEX 01 04:11:49
  TRACK 143 AUDIO
    TITLE "0:"
    INDEX 01 04:13:54
  TRACK 144 AUDIO
    TITLE "4:cjc128_1144"
    INDEX 01 04:14:34
  TRACK 145 AUDIO
    TITLE "0:"
    INDEX 01 04:18:45
  TRACK 146 AUDIO
    TITLE "5:cjc128_1145"
    INDEX 01 04:22:14
  TRACK 147 AUDIO
    TITLE "0:"
    INDEX 01 04:25:30
  TRACK 148 AUDIO
    TITLE "6:cjc128_1146"
    INDEX 01 04:26:08
  TRACK 149 AUDIO
    TITLE "0:"
    INDEX 01 04:28:18
  TRACK 150 AUDIO
    TITLE "4:cjc128_1147"
    INDEX 01 04:29:00
  TRACK 151 AUDIO
    TITLE "0:"
    INDEX 01 04:32:32
  TRACK 152 AUDIO
    TITLE "5:cjc128_1148"
    INDEX 01 04:35:36
  TRACK 153 AUDIO
    TITLE "0:"
    INDEX 01 04:38:09
  TRACK 154 AUDIO
    TITLE "6:cjc128_1149"
    INDEX 01 04:38:56
  TRACK 155 AUDIO
    TITLE "0:"
    INDEX 01 04:40:67
  TRACK 156 AUDIO
    TITLE "4:cjc128_1150"
    INDEX 01 04:41:46
  TRACK 157 AUDIO
    TITLE "0:"
    INDEX 01 04:46:69
  TRACK 158 AUDIO
    TITLE "5:cjc128_1151"
    INDEX 01 04:51:27
  TRACK 159 AUDIO
    TITLE "0:"
    INDEX 01 04:55:35
  TRACK 160 AUDIO
    TITLE "6:cjc128_1152"
    INDEX 01 04:56:13
  TRACK 161 AUDIO
    TITLE "0:"
    INDEX 01 04:58:06
  TRACK 162 AUDIO
    TITLE "4:cjc128_1153"
    INDEX 01 04:58:61
  TRACK 163 AUDIO
    TITLE "0:"
    INDEX 01 05:02:27
  TRACK 164 AUDIO
    TITLE "5:cjc128_1154"
    INDEX 01 05:05:41
  TRACK 165 AUDIO
    TITLE "0:"
    INDEX 01 05:08:08
  TRACK 166 AUDIO
    TITLE "6:cjc128_1155"
    INDEX 01 05:08:55
  TRACK 167 AUDIO
    TITLE "0:"
    INDEX 01 05:10:60
  TRACK 168 AUDIO
    TITLE "4:cjc128_1156"
    INDEX 01 05:11:32
  TRACK 169 AUDIO
    TITLE "0:"
    INDEX 01 05:14:42
  TRACK 170 AUDIO
    TITLE "5:cjc128_1157"
    INDEX 01 05:17:58
  TRACK 171 AUDIO
    TITLE "0:"
    INDEX 01 05:20:35
  TRACK 172 AUDIO
    TITLE "6:cjc128_1158"
    INDEX 01 05:21:13
  TRACK 173 AUDIO
    TITLE "0:"
    INDEX 01 05:22:57
  TRACK 174 AUDIO
    TITLE "4:cjc128_1159"
    INDEX 01 05:23:39
  TRACK 175 AUDIO
    TITLE "0:"
    INDEX 01 05:26:18
  TRACK 176 AUDIO
    TITLE "5:cjc128_1160"
    INDEX 01 05:29:49
  TRACK 177 AUDIO
    TITLE "0:"
    INDEX 01 05:32:38
  TRACK 178 AUDIO
    TITLE "6:cjc128_1161"
    INDEX 01 05:33:22
  TRACK 179 AUDIO
    TITLE "0:"
    INDEX 01 05:35:09
  TRACK 180 AUDIO
    TITLE "4:cjc128_1162"
    INDEX 01 05:35:64
  TRACK 181 AUDIO
    TITLE "0:"
    INDEX 01 05:39:11
  TRACK 182 AUDIO
    TITLE "5:cjc128_1163"
    INDEX 01 05:43:04
  TRACK 183 AUDIO
    TITLE "0:"
    INDEX 01 05:46:26
  TRACK 184 AUDIO
    TITLE "6:cjc128_1164"
    INDEX 01 05:46:69
  TRACK 185 AUDIO
    TITLE "0:"
    INDEX 01 05:49:03
  TRACK 186 AUDIO
    TITLE "4:cjc128_1165"
    INDEX 01 05:49:60
  TRACK 187 AUDIO
    TITLE "0:"
    INDEX 01 05:54:18
  TRACK 188 AUDIO
    TITLE "5:cjc128_1166"
    INDEX 01 05:58:55
  TRACK 189 AUDIO
    TITLE "0:"
    INDEX 01 06:02:47
  TRACK 190 AUDIO
    TITLE "6:cjc128_1167"
    INDEX 01 06:03:23
  TRACK 191 AUDIO
    TITLE "0:"
    INDEX 01 06:05:12
  TRACK 192 AUDIO
    TITLE "4:cjc128_1168"
    INDEX 01 06:05:67
  TRACK 193 AUDIO
    TITLE "0:"
    INDEX 01 06:08:24
  TRACK 194 AUDIO
    TITLE "5:cjc128_1169"
    INDEX 01 06:10:54
  TRACK 195 AUDIO
    TITLE "0:"
    INDEX 01 06:12:69
  TRACK 196 AUDIO
    TITLE "6:cjc128_1170"
    INDEX 01 06:13:51
  TRACK 197 AUDIO
    TITLE "0:"
    INDEX 01 06:15:44
  TRACK 198 AUDIO
    TITLE "4:cjc128_1171"
    INDEX 01 06:16:25
  TRACK 199 AUDIO
    TITLE "0:"
    INDEX 01 06:19:00
  TRACK 200 AUDIO
    TITLE "5:cjc128_1172"
    INDEX 01 06:21:36
  TRACK 201 AUDIO
    TITLE "0:"
    INDEX 01 06:23:51
  TRACK 202 AUDIO
    TITLE "6:cjc128_1173"
    INDEX 01 06:24:27
  TRACK 203 AUDIO
    TITLE "0:"
    INDEX 01 06:26:24
  TRACK 204 AUDIO
    TITLE "4:cjc128_1174"
    INDEX 01 06:27:08
  TRACK 205 AUDIO
    TITLE "0:"
    INDEX 01 06:29:57
  TRACK 206 AUDIO
    TITLE "5:cjc128_1175"
    INDEX 01 06:32:23
  TRACK 207 AUDIO
    TITLE "0:"
    INDEX 01 06:34:18
  TRACK 208 AUDIO
    TITLE "6:cjc128_1176"
    INDEX 01 06:34:65
  TRACK 209 AUDIO
    TITLE "0:"
    INDEX 01 06:36:67
  TRACK 210 AUDIO
    TITLE "4:cjc128_1177"
    INDEX 01 06:37:45
  TRACK 211 AUDIO
    TITLE "0:"
    INDEX 01 06:40:26
  TRACK 212 AUDIO
    TITLE "5:cjc128_1178"
    INDEX 01 06:43:03
  TRACK 213 AUDIO
    TITLE "0:"
    INDEX 01 06:45:33
